<svg width="15" height="14" viewBox="0 0 15 14" fill="none" xmlns="http://www.w3.org/2000/svg">
<path fill-rule="evenodd" clip-rule="evenodd" d="M12 0H3C1.89543 0 1 0.895416 1 2V12C1 13.1046 1.89543 14 3 14H12C13.1046 14 14 13.1046 14 12V2C14 0.895416 13.1046 0 12 0ZM2 12V3H13V12C13 12.5523 12.5523 13 12 13H3C2.44771 13 2 12.5523 2 12ZM5 5C5 5.55228 4.55229 6 4 6C3.44771 6 3 5.55228 3 5C3 4.44772 3.44771 4 4 4C4.55229 4 5 4.44772 5 5ZM4 9C4.55229 9 5 8.55228 5 8C5 7.44772 4.55229 7 4 7C3.44771 7 3 7.44772 3 8C3 8.55228 3.44771 9 4 9ZM5 11C5 11.5523 4.55229 12 4 12C3.44771 12 3 11.5523 3 11C3 10.4477 3.44771 10 4 10C4.55229 10 5 10.4477 5 11ZM7 6C7.55229 6 8 5.55228 8 5C8 4.44772 7.55229 4 7 4C6.44771 4 6 4.44772 6 5C6 5.55228 6.44771 6 7 6ZM8 8C8 8.55228 7.55229 9 7 9C6.44771 9 6 8.55228 6 8C6 7.44772 6.44771 7 7 7C7.55229 7 8 7.44772 8 8ZM7 12C7.55229 12 8 11.5523 8 11C8 10.4477 7.55229 10 7 10C6.44771 10 6 10.4477 6 11C6 11.5523 6.44771 12 7 12ZM11 5C11 5.55228 10.5523 6 10 6C9.44771 6 9 5.55228 9 5C9 4.44772 9.44771 4 10 4C10.5523 4 11 4.44772 11 5ZM10 9C10.5523 9 11 8.55228 11 8C11 7.44772 10.5523 7 10 7C9.44771 7 9 7.44772 9 8C9 8.55228 9.44771 9 10 9Z" fill="#72767A"/>
</svg>
