<svg width="21" height="20" viewBox="0 0 21 20" fill="none" xmlns="http://www.w3.org/2000/svg">
<path d="M8.00008 3.71663C8.80845 3.4598 9.6519 3.33047 10.5001 3.3333C13.9851 3.3333 16.3567 5.41663 17.7709 7.2533C18.4792 8.17496 18.8334 8.63413 18.8334 9.99996C18.8334 11.3666 18.4792 11.8258 17.7709 12.7466C16.3567 14.5833 13.9851 16.6666 10.5001 16.6666C7.01508 16.6666 4.64341 14.5833 3.22925 12.7466C2.52091 11.8266 2.16675 11.3658 2.16675 9.99996C2.16675 8.6333 2.52091 8.17413 3.22925 7.2533C3.66133 6.68898 4.14237 6.16389 4.66675 5.68413" stroke="#72767A" stroke-width="1.5" stroke-linecap="round"/>
<path d="M13 10C13 10.663 12.7366 11.2989 12.2678 11.7678C11.7989 12.2366 11.163 12.5 10.5 12.5C9.83696 12.5 9.20107 12.2366 8.73223 11.7678C8.26339 11.2989 8 10.663 8 10C8 9.33696 8.26339 8.70107 8.73223 8.23223C9.20107 7.76339 9.83696 7.5 10.5 7.5C11.163 7.5 11.7989 7.76339 12.2678 8.23223C12.7366 8.70107 13 9.33696 13 10Z" stroke="#72767A" stroke-width="1.5"/>
</svg>
