<svg width="13" height="13" viewBox="0 0 13 13" fill="none" xmlns="http://www.w3.org/2000/svg">
<path d="M10 6.5L11.0754 5.60387C12.1539 4.70509 12.3392 3.11889 11.4968 1.99573V1.99573C10.657 0.876052 9.08885 0.607433 7.92431 1.38379L5.41566 3.05622C4.55409 3.6306 4.10948 4.65688 4.27971 5.67827V5.67827C4.41811 6.50869 4.9455 7.22275 5.6985 7.59925L6.5 8M6.5 5L7.66122 5.87092C8.18924 6.26693 8.5 6.88844 8.5 7.54847V7.54847C8.5 8.15315 8.23897 8.7284 7.7839 9.12659L5.30723 11.2937C4.78684 11.749 4.11886 12 3.42737 12H3.28078C2.47451 12 1.71529 11.6204 1.23153 10.9754V10.9754C0.76872 10.3583 0.608624 9.56551 0.795705 8.81718L0.816069 8.73573C0.936424 8.2543 1.18536 7.81464 1.53625 7.46375L2.5 6.5" stroke="#72767A" stroke-linecap="round" stroke-linejoin="round"/>
</svg>
