<svg width="20" height="20" viewBox="0 0 11 14" fill="none" xmlns="http://www.w3.org/2000/svg">
<path fill-rule="evenodd" clip-rule="evenodd" d="M5.5 1.25C3.01472 1.25 1 3.26472 1 5.75V6.28494C1 7.71228 1.60581 9.07255 2.66674 10.0274L5.5 12.5773L8.33325 10.0274C9.39419 9.07255 10 7.71228 10 6.28494V5.75C10 3.26472 7.98528 1.25 5.5 1.25ZM11 5.75V6.28494C11 7.99577 10.2739 9.6262 9.00222 10.7707L5.83448 13.6216C5.64433 13.7928 5.35567 13.7928 5.16552 13.6216L1.99778 10.7707C1.83882 10.6276 1.68839 10.477 1.54684 10.3195C0.555946 9.21734 0 7.78192 0 6.28494V5.75C0 2.71243 2.46243 0.25 5.5 0.25C8.53757 0.25 11 2.71243 11 5.75ZM5.5 4.25C4.67157 4.25 4 4.92157 4 5.75C4 6.57843 4.67157 7.25 5.5 7.25C6.32843 7.25 7 6.57843 7 5.75C7 4.92157 6.32843 4.25 5.5 4.25ZM3 5.75C3 4.36929 4.11929 3.25 5.5 3.25C6.88071 3.25 8 4.36929 8 5.75C8 7.13071 6.88071 8.25 5.5 8.25C4.11929 8.25 3 7.13071 3 5.75Z" fill="#000"/>
</svg>
