<svg width="20" height="20" viewBox="0 0 13 14" fill="none" xmlns="http://www.w3.org/2000/svg">
<path fill-rule="evenodd" clip-rule="evenodd" d="M6.66923 0.957398L7.56927 0.957398C7.80865 0.957398 8.00271 1.15146 8.00271 1.39084C8.00271 1.63022 7.80865 1.82428 7.56927 1.82428H6.70239C5.32796 1.82428 4.34075 1.8252 3.58947 1.92621C2.85065 2.02554 2.40524 2.21446 2.07602 2.54367C1.7468 2.87289 1.55789 3.3183 1.45855 4.05712C1.35755 4.8084 1.35663 5.79562 1.35663 7.17004C1.35663 8.54447 1.35755 9.53168 1.45855 10.283C1.55789 11.0218 1.7468 11.4672 2.07602 11.7964C2.40524 12.1256 2.85065 12.3145 3.58947 12.4139C4.34075 12.5149 5.32796 12.5158 6.70239 12.5158C8.07681 12.5158 9.06403 12.5149 9.81531 12.4139C10.5541 12.3145 10.9995 12.1256 11.3288 11.7964C11.658 11.4672 11.8469 11.0218 11.9462 10.283C12.0472 9.53168 12.0482 8.54447 12.0482 7.17004V6.30316C12.0482 6.06378 12.2422 5.86972 12.4816 5.86972C12.721 5.86972 12.915 6.06378 12.915 6.30316V7.2032C12.915 8.53727 12.915 9.58275 12.8054 10.3985C12.6931 11.2334 12.4589 11.8923 11.9417 12.4094C11.4246 12.9265 10.7658 13.1608 9.93082 13.273C9.11509 13.3827 8.06961 13.3827 6.73555 13.3827H6.66923C5.33516 13.3827 4.28968 13.3827 3.47396 13.273C2.63901 13.1608 1.98017 12.9265 1.46304 12.4094C0.945914 11.8923 0.71166 11.2334 0.599405 10.3985C0.489733 9.58275 0.489739 8.53727 0.489746 7.2032V7.13688C0.489739 5.80281 0.489733 4.75733 0.599405 3.94161C0.71166 3.10667 0.945914 2.44782 1.46304 1.93069C1.98017 1.41357 2.63901 1.17931 3.47396 1.06706C4.28968 0.957384 5.33516 0.95739 6.66923 0.957398ZM9.45938 1.55029C10.2499 0.759765 11.5316 0.759765 12.3221 1.55029C13.1127 2.34082 13.1127 3.62252 12.3221 4.41305L8.48006 8.25513C8.26549 8.46973 8.13108 8.60416 7.98108 8.72115C7.80442 8.85895 7.61326 8.97709 7.411 9.07348C7.23928 9.15532 7.05894 9.21542 6.77104 9.31136L5.09245 9.87089C4.78255 9.97419 4.44087 9.89354 4.20988 9.66255C3.97889 9.43155 3.89824 9.08988 4.00154 8.77998L4.56106 7.1014C4.65701 6.8135 4.71711 6.63315 4.79895 6.46142C4.89534 6.25917 5.01348 6.06801 5.15128 5.89135C5.26827 5.74135 5.4027 5.60693 5.61731 5.39236L9.45938 1.55029ZM11.7092 2.16327C11.2572 1.71128 10.5243 1.71128 10.0724 2.16327L9.8547 2.38093C9.86782 2.43633 9.88617 2.50233 9.91171 2.57596C9.99453 2.81467 10.1513 3.12906 10.4473 3.42511C10.7434 3.72117 11.0578 3.8779 11.2965 3.96072C11.3701 3.98626 11.4361 4.00461 11.4915 4.01773L11.7092 3.80008C12.1611 3.34809 12.1611 2.61526 11.7092 2.16327ZM10.8086 4.70064C10.5104 4.5724 10.1631 4.36682 9.83434 4.03809C9.50561 3.70937 9.30003 3.36202 9.17179 3.06383L6.25017 5.98545C6.00946 6.22617 5.91506 6.32163 5.83482 6.42449C5.73575 6.55152 5.65081 6.68895 5.5815 6.83437C5.52538 6.95214 5.48221 7.07927 5.37456 7.40222L5.12496 8.15102L5.72141 8.74747L6.47021 8.49787C6.79316 8.39022 6.92029 8.34705 7.03806 8.29093C7.18348 8.22162 7.32091 8.13668 7.44794 8.03761C7.5508 7.95737 7.64626 7.86297 7.88698 7.62226L10.8086 4.70064Z" fill="black" />
</svg>
