<svg width="21" height="21" viewBox="0 0 21 21" fill="none" xmlns="http://www.w3.org/2000/svg">
<path fill-rule="evenodd" clip-rule="evenodd" d="M4.68117 0.521217C8.54852 0.0930252 12.4513 0.0930252 16.3187 0.521217C18.4599 0.761217 20.1874 2.44747 20.4387 4.59622C20.8969 8.51871 20.8969 12.4812 20.4387 16.4037C20.1874 18.5525 18.4599 20.2387 16.3187 20.4787C12.4513 20.9069 8.54852 20.9069 4.68117 20.4787C2.53992 20.2387 0.812415 18.5525 0.561165 16.4037C0.102984 12.4816 0.102984 8.51955 0.561165 4.59747C0.68825 3.55356 1.16414 2.58315 1.91171 1.84352C2.65927 1.1039 3.63471 0.638397 4.67992 0.522467M10.4999 4.25872C10.7486 4.25872 10.987 4.35749 11.1628 4.5333C11.3386 4.70912 11.4374 4.94758 11.4374 5.19622V9.56247H15.8037C16.0523 9.56247 16.2908 9.66124 16.4666 9.83706C16.6424 10.0129 16.7412 10.2513 16.7412 10.5C16.7412 10.7486 16.6424 10.9871 16.4666 11.1629C16.2908 11.3387 16.0523 11.4375 15.8037 11.4375H11.4374V15.8037C11.4374 16.0524 11.3386 16.2908 11.1628 16.4666C10.987 16.6424 10.7486 16.7412 10.4999 16.7412C10.2513 16.7412 10.0128 16.6424 9.837 16.4666C9.66119 16.2908 9.56242 16.0524 9.56242 15.8037V11.4375H5.19617C4.94753 11.4375 4.70907 11.3387 4.53325 11.1629C4.35744 10.9871 4.25867 10.7486 4.25867 10.5C4.25867 10.2513 4.35744 10.0129 4.53325 9.83706C4.70907 9.66124 4.94753 9.56247 5.19617 9.56247H9.56242V5.19622C9.56242 4.94758 9.66119 4.70912 9.837 4.5333C10.0128 4.35749 10.2513 4.25872 10.4999 4.25872Z" fill="black"/>
</svg>
