<svg width="30" height="30" viewBox="0 0 18 19" fill="none" xmlns="http://www.w3.org/2000/svg">
<path d="M11.3311 2.28724C12.383 3.35788 13.0414 4.76325 13.1962 6.26826C13.3509 7.77327 12.9925 9.28665 12.181 10.5552C12.3227 10.6752 12.4407 10.8072 12.606 10.9272C12.8421 11.1192 13.1608 11.3592 13.5622 11.6352C13.9636 11.9232 14.2233 12.1032 14.3413 12.1992C14.8371 12.5712 15.2031 12.8832 15.451 13.1352C15.8287 13.5192 16.1593 13.9152 16.4426 14.3352C16.7377 14.7552 16.962 15.1632 17.1391 15.5832C17.3043 16.0032 17.387 16.3992 17.3516 16.7832C17.328 17.1672 17.1863 17.4912 16.9266 17.7552C16.6669 18.0192 16.3481 18.1632 15.9704 18.1872C15.6044 18.2112 15.2031 18.1392 14.8017 17.9592C14.3885 17.7912 13.9754 17.5512 13.574 17.2512C13.1608 16.9632 12.7713 16.6272 12.3935 16.2432C12.1456 15.9912 11.8387 15.6192 11.4845 15.1272C11.3665 14.9712 11.1894 14.7072 10.9297 14.3352C10.67 13.9512 10.4575 13.6512 10.2686 13.3992C10.0798 13.1592 9.9263 12.9792 9.74922 12.7992C8.52393 13.4514 7.12585 13.6891 5.75849 13.4775C4.39112 13.266 3.12586 12.6164 2.14688 11.6232C-0.379364 9.04324 -0.379364 4.85524 2.14688 2.28724C2.74966 1.67376 3.4655 1.18707 4.25344 0.85502C5.04139 0.522965 5.886 0.352051 6.73898 0.352051C7.59195 0.352051 8.43656 0.522965 9.22451 0.85502C10.0125 1.18707 10.7283 1.67376 11.3311 2.28724ZM9.66659 9.91924C10.4378 9.12956 10.8706 8.06196 10.8706 6.94924C10.8706 5.83651 10.4378 4.76891 9.66659 3.97924C9.28331 3.58847 8.82795 3.27843 8.32658 3.06688C7.82522 2.85534 7.28772 2.74644 6.74488 2.74644C6.20204 2.74644 5.66454 2.85534 5.16318 3.06688C4.66181 3.27843 4.20645 3.58847 3.82317 3.97924C3.43876 4.36885 3.13376 4.83174 2.92565 5.34139C2.71755 5.85104 2.61042 6.39743 2.61042 6.94924C2.61042 7.50105 2.71755 8.04743 2.92565 8.55708C3.13376 9.06673 3.43876 9.52963 3.82317 9.91924C4.20645 10.31 4.66181 10.62 5.16318 10.8316C5.66454 11.0431 6.20204 11.152 6.74488 11.152C7.28772 11.152 7.82522 11.0431 8.32658 10.8316C8.82795 10.62 9.28331 10.31 9.66659 9.91924Z" fill="#212121"/>
</svg>
