<svg width="26" height="25" viewBox="0 0 26 25" fill="none" xmlns="http://www.w3.org/2000/svg">
<path fill-rule="evenodd" clip-rule="evenodd" d="M12.8645 0.248779C6.0985 0.248779 0.613281 5.734 0.613281 12.5C0.613281 19.2661 6.0985 24.7513 12.8645 24.7513C19.6306 24.7513 25.1158 19.2661 25.1158 12.5C25.1158 5.734 19.6306 0.248779 12.8645 0.248779ZM2.84078 12.5C2.84078 14.8278 3.63489 16.9706 4.96582 18.6724C5.90074 17.4452 7.10662 16.4507 8.48932 15.7664C9.87202 15.0821 11.3942 14.7265 12.9369 14.7275C14.4598 14.7258 15.9631 15.0718 17.3319 15.7392C18.7008 16.4067 19.8992 17.3779 20.8356 18.5789C21.8006 17.3132 22.4504 15.836 22.7311 14.2693C23.0119 12.7027 22.9155 11.0917 22.45 9.56974C21.9845 8.04774 21.1633 6.65846 20.0543 5.51686C18.9453 4.37525 17.5804 3.51414 16.0726 3.00476C14.5647 2.49539 12.9572 2.3524 11.3831 2.58762C9.80898 2.82285 8.31352 3.42953 7.02043 4.35746C5.72734 5.2854 4.6738 6.50791 3.94699 7.92385C3.22018 9.33979 2.84098 10.9084 2.84078 12.5ZM12.8645 22.5238C10.5634 22.5275 8.33173 21.7359 6.54734 20.2829C7.2655 19.2545 8.22152 18.4148 9.33403 17.8354C10.4465 17.256 11.6826 16.954 12.9369 16.955C14.1756 16.9539 15.3967 17.2485 16.4987 17.8141C17.6007 18.3797 18.5518 19.2001 19.2731 20.2072C17.4749 21.7074 15.2064 22.5274 12.8645 22.5238Z" fill="black"/>
</svg>
