<svg width="20" height="20" viewBox="0 0 14 14" fill="none" xmlns="http://www.w3.org/2000/svg">
<path d="M3.92469 9.60875L8.12097 8.24756L9.48216 4.05128L5.2866 5.41319L3.92469 9.60875ZM6.70054 7.63632C6.4756 7.63632 6.28534 7.55757 6.12976 7.40007C5.97515 7.24256 5.89784 7.05158 5.89784 6.82713C5.89784 6.60219 5.97635 6.41193 6.13338 6.25635C6.29088 6.10174 6.48186 6.02443 6.70632 6.02443C6.93126 6.02443 7.12151 6.10294 7.27709 6.25996C7.43219 6.41747 7.50974 6.60845 7.50974 6.8329C7.50974 7.05784 7.43098 7.2481 7.27348 7.40368C7.11598 7.55878 6.92499 7.63632 6.70054 7.63632ZM6.7056 13.3325C5.80632 13.3325 4.961 13.162 4.16962 12.821C3.37824 12.4795 2.6897 12.0161 2.10399 11.4309C1.51829 10.8457 1.05468 10.1579 0.71318 9.36744C0.371679 8.57702 0.200928 7.73194 0.200928 6.83218C0.200928 5.93243 0.371679 5.0871 0.71318 4.29621C1.0542 3.50483 1.51684 2.81629 2.1011 2.23058C2.68536 1.64487 3.37343 1.18127 4.16529 0.839767C4.95715 0.498266 5.80247 0.327515 6.70126 0.327515C7.60005 0.327515 8.44538 0.498266 9.23724 0.839767C10.0286 1.18079 10.7172 1.64367 11.3029 2.22841C11.8886 2.81316 12.3522 3.50122 12.6937 4.29259C13.0352 5.08397 13.2059 5.92906 13.2059 6.82785C13.2059 7.72664 13.0354 8.57196 12.6944 9.36382C12.3534 10.1557 11.89 10.8442 11.3043 11.4294C10.7186 12.0147 10.0308 12.4783 9.24085 12.8203C8.45091 13.1622 7.60583 13.333 6.7056 13.3325ZM6.70343 12.61C8.31412 12.61 9.68013 12.0494 10.8014 10.928C11.9228 9.80672 12.4834 8.44071 12.4834 6.83001C12.4834 5.21932 11.9228 3.85331 10.8014 2.73199C9.68013 1.61067 8.31412 1.05001 6.70343 1.05001C5.09273 1.05001 3.72673 1.61067 2.60541 2.73199C1.48409 3.85331 0.923428 5.21932 0.923428 6.83001C0.923428 8.44071 1.48409 9.80672 2.60541 10.928C3.72673 12.0494 5.09273 12.61 6.70343 12.61Z" fill="black"/>
</svg>
